<svg xmlns="http://www.w3.org/2000/svg" width="46" height="46" viewBox="0 0 46 46" fill="none">
<path fill-rule="evenodd" clip-rule="evenodd" d="M2.19629 22.8961L10.3527 14.7397V9.66061H15.4323L23.5884 1.50391L31.7451 9.66061H36.8245V14.7397L44.9809 22.8961L36.8245 31.0525V36.1318H31.7451L23.5884 44.2882L15.4323 36.1318H10.3527V31.0525L2.19629 22.8961Z" fill="#FAB31C"/>
<path fill-rule="evenodd" clip-rule="evenodd" d="M4.86989 22.8962L23.5884 4.17789L42.3068 22.8962L23.5884 41.6145L4.86989 22.8962ZM8.46158 7.76959H15.9857L23.5884 0.166992L31.1911 7.76959H38.7151V15.2936L46.3178 22.8962L38.7151 30.4988V38.0228H31.1911L23.5884 45.6255L15.9857 38.0228H8.46158V30.4988L0.858887 22.8962L8.46158 15.2936V7.76959ZM15.4319 9.6604H10.3525V14.7398L8.46158 16.6305V16.6306L2.19598 22.8962L8.46158 29.1618V29.162L10.3525 31.0526V36.132H15.4319L17.3226 38.0228H17.3227L23.5884 44.2884L29.854 38.0228H29.8542L31.7448 36.132H36.8242V31.0526L38.7151 29.162V29.1618L44.9807 22.8962L38.7151 16.6306V16.6305L36.8242 14.7398V9.6604H31.7448L29.8542 7.76959H29.854L23.5884 1.504L15.4319 9.6604Z" fill="#007556"/>
<path fill-rule="evenodd" clip-rule="evenodd" d="M128.345 45.1414V43.2864H128.051L126.746 44.3792C126.692 44.4225 126.653 44.4556 126.627 44.48C126.599 44.5092 126.568 44.5422 126.534 44.5815C126.537 44.5436 126.54 44.5035 126.542 44.4586C126.544 44.4155 126.547 44.3836 126.549 44.3616C126.551 44.3329 126.552 44.2991 126.552 44.2604V43.2864H126.164V45.1414H126.459L127.821 43.9947C127.859 43.9612 127.888 43.9346 127.907 43.9162C127.936 43.8878 127.959 43.8637 127.974 43.8439C127.974 43.865 127.971 43.8932 127.967 43.9284C127.963 43.9636 127.961 43.9885 127.961 44.0064C127.958 44.0421 127.957 44.0868 127.957 44.1391V45.1414H128.345ZM123.199 45.1414V43.2864H123.63V44.0064H124.978V43.2864H125.414V45.1414H124.978V44.3443H123.63V45.1414H123.199ZM120.845 43.6189H122.009V44.014H121.373V44.3771H122.009V44.794H120.845V44.3947L120.414 44.4846V44.7036C120.414 44.8715 120.446 44.9866 120.507 45.0488C120.574 45.1103 120.696 45.1414 120.874 45.1414H122.056C122.142 45.1414 122.229 45.1152 122.313 45.0626C122.398 45.0088 122.441 44.9202 122.441 44.794V44.4518C122.441 44.3733 122.423 44.3178 122.389 44.2847C122.354 44.2517 122.302 44.2159 122.232 44.178C122.289 44.1548 122.339 44.1223 122.38 44.0806C122.42 44.0389 122.441 43.9912 122.441 43.9346V43.7267C122.441 43.5591 122.41 43.4443 122.347 43.3804C122.282 43.3183 122.159 43.2872 121.98 43.2872H120.874C120.695 43.2872 120.574 43.3183 120.507 43.3809C120.446 43.4443 120.414 43.5591 120.414 43.7267V43.9027L120.845 43.9706V43.6189ZM119.755 45.1414V43.2864H119.461L118.156 44.3792C118.102 44.4225 118.063 44.4556 118.038 44.48C118.009 44.5092 117.98 44.5422 117.946 44.5815C117.947 44.5436 117.951 44.5035 117.953 44.4586C117.956 44.4155 117.958 44.3836 117.961 44.3616C117.961 44.3329 117.963 44.2991 117.963 44.2604V43.2864H117.576V45.1414H117.87L119.231 43.9947C119.271 43.9612 119.299 43.9346 119.318 43.9162C119.347 43.8878 119.369 43.8637 119.386 43.8439C119.384 43.865 119.382 43.8932 119.378 43.9284C119.373 43.9636 119.371 43.9885 119.371 44.0064C119.368 44.0421 119.367 44.0868 119.367 44.1391V45.1414H119.755ZM114.975 45.1414V44.3259L113.876 45.1414H113.172L114.563 44.1604L113.323 43.2864H113.948L114.975 44.0597V43.2864H115.41V44.0597L116.438 43.2864H117.064L115.834 44.1604L117.214 45.1414H116.522L115.41 44.3259V45.1414H114.975ZM108.845 44.794H110.267V43.6189H108.845V44.794ZM108.414 43.7267C108.414 43.5591 108.445 43.4443 108.507 43.3804C108.573 43.3175 108.694 43.2864 108.875 43.2864H110.239C110.419 43.2864 110.54 43.3175 110.601 43.3804C110.666 43.4424 110.7 43.5569 110.7 43.725V44.7028C110.7 44.8718 110.666 44.9866 110.601 45.0488C110.54 45.1103 110.419 45.1414 110.239 45.1414H108.875C108.696 45.1414 108.574 45.1103 108.507 45.0488C108.445 44.9852 108.414 44.8701 108.414 44.7036V44.3876H107.939V45.1414H107.522V43.2864H107.939V44.0169H108.414V43.7267ZM106.896 45.1414V43.2864H106.601L105.297 44.3792C105.242 44.4225 105.202 44.4556 105.177 44.48C105.149 44.5092 105.119 44.5422 105.085 44.5815C105.087 44.5436 105.09 44.5035 105.093 44.4586C105.095 44.4155 105.097 44.3836 105.099 44.3616C105.101 44.3329 105.102 44.2991 105.102 44.2604V43.2864H104.715V45.1414H105.01L106.371 43.9947C106.41 43.9612 106.439 43.9346 106.458 43.9162C106.486 43.8878 106.51 43.8637 106.526 43.8439C106.525 43.865 106.522 43.8932 106.518 43.9284C106.515 43.9636 106.512 43.9885 106.512 44.0064C106.51 44.0421 106.509 44.0868 106.509 44.1391V45.1414H106.896ZM101.883 45.1414V43.2864H102.315V44.0064H103.662V43.2864H104.097V45.1414H103.662V44.3443H102.315V45.1414H101.883ZM98.8567 45.1414L99.9019 43.2864H100.318L101.383 45.1414H100.896L100.674 44.7356H99.4992L99.2845 45.1414H98.8567ZM99.6866 44.4006H100.498L100.096 43.6473L99.6866 44.4006ZM96.4823 45.1414V43.2864H98.0709C98.2161 43.2864 98.323 43.3162 98.3915 43.3741C98.4551 43.431 98.4874 43.5222 98.4874 43.6473V43.8726C98.4874 43.9595 98.4603 44.0299 98.4059 44.0852C98.3482 44.1423 98.2691 44.1756 98.1684 44.1856C98.2754 44.2 98.3579 44.239 98.4164 44.301C98.4738 44.3608 98.5031 44.4415 98.5031 44.5417V44.7783C98.5031 44.8983 98.4573 44.9904 98.3652 45.0526C98.2778 45.1119 98.1402 45.1414 97.9553 45.1414H96.4823ZM97.8909 44.3362H96.9069V44.807H97.8909C97.9743 44.807 98.0287 44.7943 98.0566 44.7705C98.0855 44.7456 98.0999 44.7028 98.0999 44.6424V44.5019C98.0999 44.4401 98.0855 44.3971 98.0566 44.3722C98.0284 44.3484 97.9737 44.3362 97.8909 44.3362ZM97.8909 43.5894H96.9069V44.0307H97.8909C97.9642 44.0307 98.0154 44.0217 98.0452 44.0023C98.0747 43.9798 98.0888 43.9455 98.0888 43.8983V43.7221C98.0888 43.6741 98.0747 43.6398 98.0452 43.6175C98.0154 43.5991 97.9642 43.5894 97.8909 43.5894V43.5894ZM94.0378 44.794H95.4612V43.6189H94.0378V44.794ZM93.6062 43.725C93.6062 43.5572 93.6379 43.4429 93.6999 43.3804C93.7657 43.3175 93.8881 43.2864 94.066 43.2864H95.432C95.6123 43.2864 95.7331 43.3175 95.7948 43.3804C95.8601 43.4424 95.8931 43.5569 95.8931 43.725V44.7028C95.8931 44.8718 95.8601 44.9866 95.7948 45.0488C95.7326 45.1103 95.6118 45.1414 95.432 45.1414H94.066C93.8889 45.1414 93.7662 45.1103 93.6999 45.0488C93.6379 44.9866 93.6062 44.8715 93.6062 44.7028V43.725ZM90.9323 45.1414L91.8121 44.1889L90.9169 43.2864H91.4882L92.0815 43.9162L92.6447 43.2864H93.1418L92.3338 44.1391L93.3322 45.1414H92.747L92.068 44.4225L91.4417 45.1414H90.9323ZM88.1326 45.1414L89.1769 43.2864H89.5939L90.6572 45.1414H90.1726L89.9497 44.7356H88.7759L88.5596 45.1414H88.1326ZM88.9628 44.4006H89.7737L89.3719 43.6473L88.9628 44.4006ZM85.9775 45.1414V43.2864H87.5604C87.7064 43.2864 87.8139 43.3146 87.884 43.3701C87.949 43.4267 87.9826 43.519 87.9826 43.6473V44.0597C87.9826 44.1848 87.949 44.2755 87.884 44.3329C87.8158 44.3914 87.7072 44.4196 87.5604 44.4196H86.4013V45.1414H85.9775ZM87.3709 43.6075H86.4013V44.0995H87.3709C87.4459 44.0995 87.4974 44.0892 87.5255 44.0673C87.5518 44.0459 87.5645 44.0075 87.5645 43.9525V43.7543C87.5645 43.6999 87.5518 43.6611 87.5255 43.6398C87.4974 43.6189 87.4459 43.6075 87.3709 43.6075ZM84.6513 43.6189V45.1414H84.2194V43.6189H83.3676V43.2864H85.5053V43.6189H84.6513ZM82.4643 43.6189H81.3008V44.794H82.4643V44.3947L82.8962 44.4835V44.7028C82.8962 44.8715 82.8645 44.9857 82.8022 45.0488C82.7359 45.1103 82.6135 45.1414 82.4353 45.1414H81.3289C81.151 45.1414 81.0289 45.1103 80.9631 45.0488C80.8998 44.9857 80.8684 44.8715 80.8684 44.7028V43.725C80.8684 43.5591 80.8998 43.4443 80.9631 43.3804C81.0281 43.3175 81.1508 43.2864 81.3289 43.2864H82.4353C82.614 43.2864 82.7367 43.3175 82.8022 43.3804C82.8645 43.4443 82.8962 43.5591 82.8962 43.7267V43.9016L82.4643 43.9706V43.6189ZM76.1207 44.794H77.5436V43.6189H76.1207V44.794ZM75.6891 43.725C75.6891 43.5572 75.7202 43.4429 75.7814 43.3804C75.848 43.3175 75.9696 43.2864 76.1488 43.2864H77.5157C77.6944 43.2864 77.8157 43.3175 77.8772 43.3804C77.9432 43.4424 77.976 43.5569 77.976 43.725V44.7028C77.976 44.8718 77.9432 44.9866 77.8772 45.0488C77.8157 45.1103 77.6944 45.1414 77.5157 45.1414H76.1488C75.9709 45.1414 75.8486 45.1103 75.7814 45.0488C75.7202 44.9866 75.6891 44.8715 75.6891 44.7028V43.725ZM73.4688 45.1414V43.636H74.6975V45.1414H75.1286V43.2864H74.6688H73.038V43.725V45.1414H73.4688ZM70.2547 45.1414V43.2864H68.6699C68.5237 43.2864 68.4162 43.3148 68.3463 43.3701C68.2819 43.4267 68.2491 43.519 68.2491 43.6473V44.0816C68.2491 44.2059 68.2819 44.2972 68.3463 44.3551C68.4138 44.412 68.5202 44.4407 68.6699 44.4407H68.9117L68.0558 45.1414H68.674L69.4208 44.4407H69.8299V45.1414H70.2547ZM68.8605 43.6075H69.8299V44.1255H68.8605C68.7858 44.1255 68.7346 44.1152 68.7056 44.093C68.6797 44.0705 68.6661 44.0321 68.6661 43.9785V43.7543C68.6661 43.6999 68.6797 43.6611 68.7056 43.6398C68.7346 43.6189 68.7858 43.6075 68.8605 43.6075V43.6075ZM67.468 45.1414V43.2864H67.1725L65.8685 44.3792C65.8141 44.4225 65.7746 44.4556 65.7499 44.48C65.722 44.5092 65.6912 44.5422 65.6573 44.5815C65.6603 44.5436 65.6623 44.5035 65.6643 44.4586C65.6673 44.4155 65.6703 44.3836 65.6713 44.3616C65.6733 44.3329 65.6743 44.2991 65.6743 44.2604V43.2864H65.2874V45.1414H65.5822L66.9429 43.9947C66.9832 43.9612 67.0114 43.9346 67.0292 43.9162C67.0588 43.8878 67.0815 43.8637 67.0975 43.8439C67.0969 43.865 67.0945 43.8932 67.0915 43.9284C67.0875 43.9636 67.0855 43.9885 67.0845 44.0064C67.0815 44.0421 67.0805 44.0868 67.0805 44.1391V45.1414H67.468ZM62.4855 45.1414V43.2864H62.9177V44.0064H64.2642V43.2864H64.6999V45.1414H64.2642V44.3443H62.9177V45.1414H62.4855ZM59.3727 45.1414L60.4174 43.2864H60.8344L61.8985 45.1414H61.4127L61.1902 44.7356H60.0161L59.8011 45.1414H59.3727ZM60.2029 44.4006H61.0139L60.6123 43.6473L60.2029 44.4006ZM57.1248 45.1414V43.636H58.3536V45.1414H58.7854V43.2864H58.3241H56.6935V43.725V45.1414H57.1248ZM53.6836 45.1414V43.2864H54.0329L54.9059 44.4082L55.7607 43.2864H56.1059V45.1414H55.7071V43.9947C55.7071 43.9612 55.7081 43.9335 55.7111 43.9127C55.7141 43.8845 55.7181 43.8461 55.7201 43.7976C55.7093 43.8187 55.6985 43.8404 55.6882 43.861C55.6782 43.8813 55.669 43.8997 55.6606 43.9162C55.6381 43.9557 55.6227 43.9809 55.6124 43.9918L54.9159 44.9186H54.8293L54.1331 43.9885C54.1155 43.9647 54.0928 43.9316 54.0684 43.887C54.0443 43.8493 54.0292 43.8187 54.0216 43.7976C54.0256 43.8363 54.0296 43.8726 54.0327 43.9056V43.9947V45.1414H53.6836ZM51.2423 44.794H52.6647V43.6189H51.2423V44.794ZM50.8096 43.725C50.8096 43.5572 50.8413 43.4429 50.9028 43.3804C50.9689 43.3175 51.0918 43.2864 51.2702 43.2864H52.6357C52.8155 43.2864 52.9368 43.3175 52.9991 43.3804C53.0643 43.4424 53.0968 43.5569 53.0968 43.725V44.7028C53.0968 44.8718 53.0643 44.9866 52.9991 45.0488C52.936 45.1103 52.8155 45.1414 52.6357 45.1414H51.2702C51.0923 45.1414 50.9694 45.1103 50.9028 45.0488C50.8413 44.9866 50.8096 44.8715 50.8096 44.7028V43.725ZM47.9834 45.1414V43.2864H48.4187V44.0597L49.4474 43.2864H50.0715L48.8428 44.1604L50.2229 45.1414H49.5297L48.4187 44.3259V45.1414H47.9834ZM48.0621 2.84177C48.0621 2.67087 48.0941 2.55386 48.1569 2.49136C48.2246 2.42716 48.3494 2.39526 48.5311 2.39526H49.924C50.1073 2.39526 50.2297 2.42716 50.293 2.49136C50.3604 2.55336 50.3929 2.67087 50.3929 2.84177V3.83926C50.3929 4.01116 50.3604 4.12868 50.293 4.19128C50.2297 4.25408 50.1062 4.28598 49.924 4.28598H48.5311C48.35 4.28598 48.2254 4.25408 48.1569 4.19128C48.0941 4.12708 48.0621 4.01066 48.0621 3.83926V2.84177ZM48.5021 3.13336H49.9524V2.73315H48.5021V3.13336ZM49.9524 3.46066H48.5021V3.93076H49.9524V3.46066ZM51.3103 4.28598V2.39526H51.6661L52.5556 3.53757L53.4269 2.39526H53.7789V4.28598H53.3722V3.11658C53.3722 3.08358 53.3728 3.05537 53.3762 3.03317C53.3802 3.00447 53.3832 2.96496 53.3868 2.91586C53.3752 2.93896 53.3627 2.96226 53.3527 2.98306C53.3424 3.00576 53.3337 3.02286 53.3242 3.03696C53.3048 3.07246 53.2893 3.09838 53.2771 3.11328L52.5672 4.05908H52.4784L51.7684 3.10947C51.747 3.08077 51.7243 3.04698 51.7026 3.00668C51.6796 2.97168 51.6639 2.94106 51.6552 2.91586C51.6592 2.95626 51.6622 2.99278 51.6666 3.02618V3.11658V4.28598H51.3103ZM54.6752 4.28598V2.39526H55.1146L55.1186 4.28598H54.6752ZM57.5534 2.72208H56.5654V3.22437H57.5534C57.6301 3.22437 57.6831 3.21237 57.711 3.19077C57.7381 3.16967 57.7508 3.12956 57.7508 3.07346V2.87146C57.7508 2.81626 57.7381 2.77726 57.711 2.75476C57.6831 2.73316 57.6301 2.72208 57.5534 2.72208V2.72208ZM56.1338 4.28598V2.39526H57.7468C57.8957 2.39526 58.0059 2.42336 58.0774 2.48056C58.1435 2.53816 58.1762 2.63216 58.1762 2.76266V3.18347C58.1762 3.30987 58.1435 3.40327 58.0774 3.46237C58.0073 3.52077 57.8976 3.54898 57.7468 3.54898H56.5654V4.28598H56.1338ZM59.1415 2.84177C59.1415 2.67087 59.1735 2.55386 59.2368 2.49136C59.304 2.42716 59.4288 2.39526 59.6105 2.39526H61.0022H61.472V3.93076H61.8516V4.58606H61.472V4.28598H59.1415V4.58606H58.7389V3.93076H59.1415V2.84177ZM59.5815 3.93076H61.0315V2.73315H59.5815V3.93076ZM62.7788 4.28598V2.39526H63.219L63.223 4.28598H62.7788ZM68.7368 2.73315H67.5503V3.93076H68.7368V3.52408L69.1773 3.61426V3.83926C69.1773 4.00986 69.1448 4.12708 69.0812 4.19128C69.0132 4.25408 68.8895 4.28598 68.7078 4.28598H67.5792C67.3981 4.28598 67.2738 4.25408 67.2061 4.19128C67.1428 4.12708 67.1105 4.00986 67.1105 3.83926V2.84177C67.1105 2.67167 67.1428 2.55416 67.2061 2.49136C67.2738 2.42716 67.3981 2.39526 67.5792 2.39526H68.7078C68.89 2.39526 69.0138 2.42716 69.0812 2.49136C69.1448 2.55416 69.1773 2.67167 69.1773 2.84277V3.02286L68.7368 3.09247V2.73315ZM70.6213 3.53058H71.448L71.0378 2.76266L70.6213 3.53058ZM69.7749 4.28598L70.8404 2.39526H71.2647L72.3491 4.28598H71.855L71.6275 3.87177H70.4294L70.21 4.28598H69.7749ZM72.941 4.28598V2.39526H73.3846V3.18347L74.4322 2.39526H75.0693L73.8167 3.28577L74.9306 4.07776H75.323V4.65558H74.9036V4.28598H74.5145L73.3846 3.45416V4.28598H72.941ZM77.0489 2.73315V4.28598H76.6086V2.73315H75.7419V2.39526H77.921V2.73315H77.0489ZM78.8167 3.53058H79.6445L79.2345 2.76266L78.8167 3.53058ZM77.9714 4.28598L79.0369 2.39526H79.4614L80.5453 4.28598H80.0512L79.824 3.87177H78.6269L78.4068 4.28598H77.9714ZM81.1657 4.28598V2.39526H81.6057V3.12766H82.9798V2.39526H83.4231V4.28598H82.9798V3.47266H81.6057V4.28598H81.1657ZM84.3299 2.84177C84.3299 2.67087 84.3608 2.55386 84.4247 2.49136C84.4913 2.42716 84.6166 2.39526 84.798 2.39526H86.1898H86.6596V3.93076H87.0398V4.58606H86.6596V4.28598H84.3299V4.58606H83.9264V3.93076H84.3299V2.84177ZM84.7685 3.93076H86.219V2.73315H84.7685V3.93076ZM89.0527 3.95978H88.0633V3.45746H89.0527C89.1282 3.45746 89.181 3.46886 89.2097 3.49106C89.2362 3.51456 89.25 3.55196 89.25 3.60776V3.80997C89.25 3.86467 89.2362 3.90397 89.2097 3.92697C89.1815 3.94917 89.1282 3.95978 89.0527 3.95978ZM87.6319 2.39526V4.28598H89.2463C89.3952 4.28598 89.5046 4.25786 89.5763 4.20206C89.6421 4.14306 89.6762 4.04857 89.6762 3.91937V3.49777C89.6762 3.37167 89.6421 3.27958 89.5763 3.22058C89.507 3.16178 89.3963 3.13196 89.2463 3.13196H88.0633V2.39526H87.6319ZM89.9576 4.28958V2.39526H90.4117V4.28958H89.9576ZM92.5226 2.72208H91.534V3.22437H92.5226C92.5995 3.22437 92.6515 3.21237 92.6802 3.19077C92.7067 3.16967 92.7197 3.12956 92.7197 3.07346V2.87146C92.7197 2.81626 92.7067 2.77726 92.6802 2.75476C92.6515 2.73316 92.5995 2.72208 92.5226 2.72208V2.72208ZM91.1016 4.28598V2.39526H92.7162C92.8635 2.39526 92.9748 2.42336 93.0462 2.48056C93.1115 2.53816 93.1445 2.63216 93.1445 2.76266V3.18347C93.1445 3.30987 93.1115 3.40327 93.0462 3.46237C92.9758 3.52077 92.8659 3.54898 92.7162 3.54898H91.534V4.28598H91.1016ZM93.7459 4.28598V3.93076H94.8268H95.4385V3.62018H94.2146C94.0316 3.62018 93.9081 3.58768 93.8442 3.52408C93.7781 3.46258 93.7459 3.34536 93.7459 3.17236V2.39526H94.1865V3.29388H95.4385V2.39526H95.8788V3.83926C95.8788 4.01066 95.8468 4.12708 95.7843 4.19128C95.716 4.25408 95.5907 4.28598 95.4103 4.28598H94.7938H94.2146H93.7459ZM127.891 4.28998V2.39566H128.345V4.28998H127.891ZM125.565 2.39566V4.28638H127.18C127.328 4.28638 127.438 4.25828 127.51 4.20248C127.575 4.14348 127.609 4.04897 127.609 3.91977V3.49817C127.609 3.37207 127.575 3.27998 127.51 3.22098C127.439 3.16218 127.33 3.13235 127.18 3.13235H125.996V2.39566H125.565ZM126.986 3.96017H125.996V3.45786H126.986C127.062 3.45786 127.114 3.46926 127.143 3.49146C127.17 3.51496 127.183 3.55235 127.183 3.60815V3.81036C127.183 3.86506 127.17 3.90437 127.143 3.92737C127.115 3.94957 127.062 3.96017 126.986 3.96017ZM124.375 2.73358H123.188V3.93118H124.375V3.52448L124.815 3.61465V3.83966C124.815 4.01026 124.783 4.12748 124.719 4.19168C124.651 4.25448 124.527 4.28638 124.345 4.28638H123.218C123.036 4.28638 122.912 4.25448 122.844 4.19168C122.78 4.12748 122.747 4.01026 122.747 3.83966V2.84216C122.747 2.67206 122.78 2.55456 122.844 2.49176C122.911 2.42756 123.035 2.39566 123.218 2.39566H124.345C124.527 2.39566 124.652 2.42756 124.719 2.49176C124.783 2.55456 124.815 2.67207 124.815 2.84317V3.02325L124.375 3.09286V2.73358ZM121.88 4.28638V2.39566H120.265C120.115 2.39566 120.007 2.42376 119.935 2.48096C119.87 2.53856 119.837 2.63256 119.837 2.76306V3.20578C119.837 3.33168 119.87 3.42506 119.935 3.48416C120.003 3.54316 120.113 3.57236 120.265 3.57236H120.511L119.639 4.28638H120.268L121.03 3.57236H121.448V4.28638H121.88ZM120.459 2.72247H121.448V3.24936H120.459C120.383 3.24936 120.33 3.23938 120.302 3.21738C120.275 3.19388 120.261 3.15457 120.261 3.09967V2.87186C120.261 2.81666 120.275 2.77766 120.302 2.75516C120.33 2.73356 120.383 2.72247 120.459 2.72247V2.72247ZM119.008 4.28638V2.39566H118.708L117.379 3.50958C117.324 3.55238 117.283 3.58618 117.259 3.61218C117.234 3.63658 117.202 3.67146 117.163 3.71506C117.166 3.67016 117.17 3.62868 117.172 3.59348C117.174 3.55728 117.175 3.52396 117.178 3.49146C117.181 3.46276 117.182 3.42838 117.182 3.38748V2.39566H116.786V4.28638H117.087L118.475 3.11697C118.509 3.08687 118.538 3.06008 118.562 3.03738C118.588 3.01188 118.611 2.98757 118.631 2.96347C118.629 2.98567 118.628 3.01376 118.624 3.04956C118.621 3.08556 118.619 3.11128 118.616 3.12808C118.614 3.16488 118.612 3.21007 118.612 3.26477V4.28638H119.008ZM113.754 4.28638V2.39566H114.195V3.12808H115.568V2.39566H116.011V4.28638H115.568V3.47308H114.195V4.28638H113.754ZM110.792 4.28638L111.857 2.39566H112.282L113.366 4.28638H112.871L112.645 3.87216H111.447L111.228 4.28638H110.792ZM111.637 3.53098H112.466L112.055 2.76306L111.637 3.53098ZM108.689 4.28638V2.75137H109.941V4.28638H110.381V2.39566H109.912H108.25V2.84216V4.28638H108.689ZM104.992 4.28638V2.39566H105.346L106.236 3.53796L107.107 2.39566H107.46V4.28638H107.053V3.11697C107.053 3.08397 107.054 3.05577 107.056 3.03357C107.059 3.00487 107.063 2.96536 107.067 2.91626C107.055 2.93936 107.043 2.96266 107.033 2.98346C107.023 3.00616 107.014 3.02328 107.005 3.03738C106.986 3.07288 106.97 3.09878 106.957 3.11368L106.247 4.05948H106.159L105.448 3.10986C105.426 3.08116 105.404 3.04738 105.383 3.00708C105.36 2.97208 105.344 2.94146 105.335 2.91626C105.339 2.95666 105.343 2.99318 105.346 3.02658V3.11697V4.28638H104.992ZM102.359 3.93118H103.809V2.73358H102.359V3.93118ZM101.919 2.84216C101.919 2.67126 101.951 2.55426 102.013 2.49176C102.081 2.42756 102.206 2.39566 102.388 2.39566H103.78C103.964 2.39566 104.086 2.42756 104.15 2.49176C104.217 2.55376 104.25 2.67126 104.25 2.84216V3.83966C104.25 4.01156 104.217 4.12908 104.15 4.19168C104.086 4.25448 103.963 4.28638 103.78 4.28638H102.388C102.206 4.28638 102.082 4.25448 102.013 4.19168C101.951 4.12748 101.919 4.01106 101.919 3.83966V2.84216ZM99.1643 4.28638V2.39566H99.6084V3.18387L100.655 2.39566H101.294L100.041 3.28616L101.447 4.28638H100.739L99.6084 3.45456V4.28638H99.1643Z" fill="#1B1918"/>
<path fill-rule="evenodd" clip-rule="evenodd" d="M28.3849 23.2223C30.3694 19.7156 28.3158 14.1755 23.7821 14.44C21.7146 14.5607 19.8325 16.0706 19.7458 18.525C19.6759 20.5034 21.1821 22.339 23.6827 22.3139C25.0097 22.3006 26.4219 21.3579 26.3953 19.5032C26.371 17.8116 24.9258 17.0598 24.1389 17.0598C23.352 17.0598 22.132 18.0143 22.7508 18.9429C23.1944 19.6085 23.9179 18.8634 23.9179 18.8634C23.9179 18.8634 24.8119 18.5323 25.0589 19.4125C25.2978 20.2637 24.7673 21.0829 23.424 21.0474C22.0007 21.0122 20.9043 19.9509 20.9839 18.5275C21.0547 17.0952 22.1687 15.8681 24.0076 15.8681C25.8378 15.8681 27.5726 17.6563 27.5726 19.6457C27.5726 21.4202 26.5529 23.6403 23.7778 23.8275C20.6795 24.0365 18.0778 21.9756 18.0778 18.8281C18.0561 15.3577 20.5783 13.2228 23.6172 13.3809C29.5161 13.6877 30.608 20.0592 28.3849 23.2223V23.2223Z" fill="#FAB31C"/>
<path fill-rule="evenodd" clip-rule="evenodd" d="M33.9802 17.1294C33.9802 16.1313 32.2667 16.0501 32.2667 17.1294V22.8098L26.0756 28.3832V40.6306L30.5531 36.4121V29.988L33.9802 26.9254V17.1294ZM13.1963 17.1294C13.1963 16.1313 14.9098 16.0501 14.9098 17.1294V22.8098L21.1009 28.3832V40.6306L16.6234 36.4121V29.988L13.1963 26.9254V17.1294Z" fill="#FAB31C"/>
</svg>